<svg width="32" height="32" viewBox="0 0 32 32" fill="none" xmlns="http://www.w3.org/2000/svg">
<path d="M26 11.23C25.8998 11.2299 25.8006 11.25 25.7083 11.2889C25.6159 11.3279 25.5324 11.3849 25.4625 11.4567C25.3925 11.5285 25.3378 11.6136 25.3013 11.7069C25.2647 11.8001 25.2474 11.8998 25.25 12V25C25.25 25.0663 25.2236 25.1299 25.1768 25.1768C25.1299 25.2236 25.0663 25.25 25 25.25H7C6.9337 25.25 6.8701 25.2236 6.8232 25.1768C6.77635 25.1299 6.75 25.0663 6.75 25V7C6.75 6.9337 6.77635 6.8701 6.8232 6.8232C6.8701 6.77635 6.9337 6.75 7 6.75H20C20.1989 6.75 20.3897 6.671 20.5303 6.53035C20.671 6.3897 20.75 6.1989 20.75 6C20.75 5.8011 20.671 5.6103 20.5303 5.46965C20.3897 5.329 20.1989 5.25 20 5.25H7C6.53585 5.25 6.09075 5.43435 5.76255 5.76255C5.43435 6.09075 5.25 6.53585 5.25 7V25C5.25 25.4641 5.43435 25.9093 5.76255 26.2374C6.09075 26.5656 6.53585 26.75 7 26.75H25C25.4641 26.75 25.9093 26.5656 26.2374 26.2374C26.5656 25.9093 26.75 25.4641 26.75 25V12C26.7526 11.8998 26.7353 11.8001 26.6987 11.7069C26.6622 11.6136 26.6075 11.5285 26.5375 11.4567C26.4676 11.3849 26.3841 11.3279 26.2917 11.2889C26.1994 11.25 26.1002 11.2299 26 11.23Z" fill="url(#paint0_linear_50_195)"/>
<path d="M13.87 12.1948C13.7669 12.0331 13.6057 11.9171 13.4196 11.8705C13.2335 11.824 13.0367 11.8505 12.8696 11.9446C12.7025 12.0388 12.5778 12.1933 12.5211 12.3766C12.4645 12.5598 12.4802 12.7578 12.565 12.9298L15.345 17.8698C15.4051 17.9734 15.4889 18.0613 15.5896 18.1261C15.6904 18.1909 15.805 18.2308 15.9242 18.2425C16.0434 18.2542 16.1637 18.2374 16.2751 18.1935C16.3865 18.1495 16.4859 18.0797 16.565 17.9898L26.565 6.48981C26.6976 6.33996 26.7652 6.14356 26.7531 5.94386C26.7409 5.74411 26.6498 5.55741 26.5 5.42481C26.3501 5.29221 26.1538 5.22456 25.954 5.23676C25.7543 5.24891 25.5676 5.33996 25.435 5.48981L16.13 16.2048L13.87 12.1948Z" fill="url(#paint1_linear_50_195)"/>
<defs>
<linearGradient id="paint0_linear_50_195" x1="5.25" y1="16" x2="26.75" y2="16" gradientUnits="userSpaceOnUse">
<stop stop-color="#19DD33"/>
<stop offset="0.43" stop-color="#0FA922"/>
<stop offset="0.8" stop-color="#088215"/>
<stop offset="1" stop-color="#057310"/>
</linearGradient>
<linearGradient id="paint1_linear_50_195" x1="368.16" y1="310.988" x2="26.7545" y2="310.988" gradientUnits="userSpaceOnUse">
<stop stop-color="#19DD33"/>
<stop offset="0.43" stop-color="#0FA922"/>
<stop offset="0.8" stop-color="#088215"/>
<stop offset="1" stop-color="#057310"/>
</linearGradient>
</defs>
</svg>
