<svg width="17" height="18" viewBox="0 0 17 18" fill="none" xmlns="http://www.w3.org/2000/svg">
<path d="M0.16555 5.76286C-0.200335 6.23338 -0.375809 6.73777 -0.353409 7.25722C-0.331007 7.82936 -0.0771275 8.27729 0.131948 8.55207C-0.110729 9.16186 -0.204069 10.1217 0.606106 10.867C1.19974 11.4128 2.20779 11.6575 3.60413 11.5897C4.58604 11.5445 5.40741 11.3601 5.44102 11.3526H5.44475C5.63143 11.3187 5.8293 11.2773 6.03091 11.2321C6.04585 11.473 6.00478 12.0715 5.56422 13.4191C5.04153 15.0226 5.0714 16.2497 5.66129 17.0703C6.28106 17.9322 7.27044 18 7.56166 18C7.84167 18 8.09928 17.8833 8.28223 17.6688C8.69665 17.1832 8.64811 16.2873 8.59584 15.8733C9.08867 14.5408 10.4701 11.2735 11.6387 10.3664C11.6611 10.3513 11.6797 10.3325 11.6984 10.3137C12.0419 9.94856 12.2734 9.55332 12.4302 9.20703C12.6504 9.32748 12.9006 9.39523 13.1694 9.39523H15.4469C16.3056 9.39523 17 8.69134 17 7.82936L17 1.71267C17 0.846926 16.3018 0.146801 15.4469 0.146801H13.1694C12.8371 0.146801 12.5272 0.252195 12.2734 0.432873L11.396 0.327478C11.2616 0.308659 8.87212 0.00376511 6.4192 0.0526981C5.97491 0.0188217 5.55676 0 5.16847 0C4.50017 0 3.91774 0.0526981 3.43238 0.158094C2.28992 0.402761 1.50962 0.892096 1.11386 1.61104C0.811449 2.1606 0.811451 2.7064 0.859985 3.0527C0.117016 3.73024 -0.0136585 4.4793 0.012476 5.00627C0.0274105 5.31117 0.094614 5.57089 0.16555 5.76286Z" fill="#7A7A7A"/>
</svg>
