<svg width="18" height="18" viewBox="0 0 18 18" fill="none" xmlns="http://www.w3.org/2000/svg">
<path d="M16.8344 12.2371C17.2003 11.7666 17.3758 11.2622 17.3534 10.7428C17.331 10.1706 17.0771 9.72271 16.8681 9.44793C17.1107 8.83814 17.2041 7.87829 16.3939 7.133C15.8003 6.5872 14.7922 6.34253 13.3959 6.41029C12.414 6.45546 11.5926 6.6399 11.559 6.64743H11.5552C11.3686 6.6813 11.1707 6.72271 10.9691 6.76788C10.9542 6.52698 10.9952 5.92848 11.4358 4.58093C11.9585 2.97742 11.9286 1.75031 11.3387 0.929736C10.7189 0.0677541 9.72956 0 9.43834 0C9.15833 0 8.90072 0.116688 8.71777 0.331242C8.30335 0.816813 8.35189 1.71267 8.40416 2.12673C7.91133 3.45922 6.52993 6.72647 5.36134 7.63363C5.33894 7.64868 5.32027 7.6675 5.3016 7.68632C4.95812 8.05144 4.72664 8.44668 4.56983 8.79297C4.34955 8.67252 4.09941 8.60477 3.83059 8.60477H1.55314C0.694435 8.60477 0 9.30866 0 10.1706V16.2873C0 17.1531 0.698169 17.8532 1.55314 17.8532H3.83059C4.16288 17.8532 4.47276 17.7478 4.72664 17.5671L5.60402 17.6725C5.73842 17.6913 8.12788 17.9962 10.5808 17.9473C11.0251 17.9812 11.4432 18 11.8315 18C12.4998 18 13.0823 17.9473 13.5676 17.8419C14.7101 17.5972 15.4904 17.1079 15.8861 16.389C16.1886 15.8394 16.1885 15.2936 16.14 14.9473C16.883 14.2698 17.0137 13.5207 16.9875 12.9937C16.9726 12.6888 16.9054 12.4291 16.8344 12.2371Z" fill="#7A7A7A"/>
</svg>
