<svg width="280" height="15" viewBox="0 0 280 15" fill="none" xmlns="http://www.w3.org/2000/svg">
<g clip-path="url(#clip0_58_27)">
<path d="M5.64592 5.88543V9.11463C5.63279 9.35855 5.67834 9.60205 5.77858 9.82383C5.87881 10.0456 6.03069 10.2389 6.22093 10.3869C6.66105 10.7017 7.19074 10.8587 7.72738 10.8336C8.19396 10.8669 8.66058 10.7696 9.07701 10.552C9.37462 10.3357 9.61473 10.0469 9.77559 9.71191C9.83484 9.55797 9.9363 9.42478 10.0678 9.32831C10.1993 9.23184 10.3552 9.17619 10.5169 9.16805H15.0363C15.0964 9.16707 15.156 9.17863 15.2116 9.202C15.2671 9.22538 15.3174 9.26009 15.3594 9.30401C15.4023 9.346 15.4362 9.39656 15.4591 9.45254C15.482 9.50851 15.4934 9.5687 15.4925 9.62936C15.4925 10.9308 14.8795 12.1253 13.6534 13.2033C12.9299 13.7962 12.0978 14.2353 11.206 14.495C10.0397 14.8433 8.82812 15.007 7.61333 14.9806C6.32725 14.9964 5.04847 14.781 3.83533 14.3445C2.73069 13.945 1.76663 13.2201 1.06479 12.2613C0.342225 11.2385 -0.0317562 10.0017 0.000296462 8.74072V6.26905C-0.0380322 4.99519 0.336152 3.74401 1.06479 2.70964C2.40491 0.903234 4.6432 2.86864e-05 7.77966 2.86864e-05C8.93941 -0.019049 10.0951 0.144741 11.206 0.485623C12.0978 0.745329 12.9299 1.18448 13.6534 1.7773C14.8795 2.85856 15.4925 4.04665 15.4925 5.34156C15.4934 5.40222 15.482 5.46241 15.4591 5.51839C15.4362 5.57436 15.4023 5.62492 15.3594 5.66691C15.3174 5.71083 15.2671 5.74554 15.2116 5.76892C15.156 5.7923 15.0964 5.80385 15.0363 5.80288H10.5169C10.3552 5.79473 10.1993 5.73908 10.0678 5.64261C9.9363 5.54614 9.83484 5.41295 9.77559 5.25901C9.61085 4.93459 9.37104 4.6562 9.07701 4.44807C8.6614 4.22811 8.19412 4.13059 7.72738 4.16643C7.19074 4.14132 6.66105 4.29841 6.22093 4.61317C6.03069 4.76112 5.87881 4.95444 5.77858 5.17622C5.67834 5.39801 5.63279 5.6415 5.64592 5.88543Z" fill="white"/>
<path d="M33.1229 6.23017V8.76983C33.167 10.049 32.7998 11.3078 32.0774 12.3535C31.39 13.3049 30.4326 14.017 29.3354 14.393C28.0473 14.822 26.698 15.0272 25.3435 15C23.9875 15.0272 22.6366 14.822 21.3469 14.393C20.2517 14.0155 19.2962 13.3036 18.6096 12.3535C17.8905 11.2961 17.53 10.0272 17.5831 8.74069V6.26902C17.5831 4.17125 18.3039 2.60278 19.7454 1.56361C21.1869 0.524442 23.0529 0.00323729 25.3435 0C27.6436 0 29.5143 0.521204 30.9559 1.56361C32.3974 2.60602 33.1197 4.16154 33.1229 6.23017ZM23.2098 5.8854V9.1146C23.1966 9.35853 23.2422 9.60202 23.3424 9.8238C23.4427 10.0456 23.5945 10.2389 23.7848 10.3869C24.2424 10.7063 24.79 10.8633 25.3435 10.8336C25.8985 10.8649 26.4477 10.7041 26.9022 10.3771C27.0917 10.2263 27.2429 10.031 27.3429 9.80791C27.443 9.58479 27.4891 9.34032 27.4772 9.09518V5.90482C27.4891 5.65968 27.443 5.41522 27.3429 5.19209C27.2429 4.96896 27.0917 4.77372 26.9022 4.62286C26.4477 4.29589 25.8985 4.13508 25.3435 4.1664C24.79 4.13671 24.2424 4.29368 23.7848 4.61314C23.5945 4.7611 23.4427 4.95441 23.3424 5.1762C23.2422 5.39798 23.1966 5.64148 23.2098 5.8854Z" fill="white"/>
<path d="M51.0814 10.2753C51.0814 13.4122 49.1156 14.9791 45.1839 14.9758H36.5919C36.4432 14.9746 36.3007 14.914 36.1951 14.8069C36.0894 14.6999 36.0289 14.5548 36.0264 14.4028V0.597385C36.0223 0.523439 36.0333 0.449422 36.0586 0.380037C36.084 0.310652 36.1232 0.247415 36.1737 0.194342C36.2248 0.13211 36.2889 0.0823607 36.3613 0.0487486C36.4336 0.0151364 36.5125 -0.00148528 36.5919 0.000104142H44.9748C46.9581 0.000104142 48.4186 0.367537 49.3564 1.1024C50.2941 1.83727 50.7694 2.94442 50.782 4.42387V4.48699C50.7995 5.11695 50.6087 5.73454 50.2403 6.23999C49.9633 6.65626 49.5688 6.9764 49.1092 7.15776C49.6964 7.35334 50.1998 7.74943 50.5349 8.27948C50.9159 8.8704 51.107 9.5681 51.0814 10.2753ZM44.8845 5.34164C45.0271 5.13942 45.1035 4.89644 45.1031 4.64724C45.1064 4.40654 45.0293 4.17188 44.8845 3.98198C44.8059 3.88817 44.707 3.81433 44.5957 3.76629C44.4844 3.71825 44.3636 3.69733 44.243 3.70519H41.4439V5.64756H44.243C44.3663 5.65441 44.4894 5.63008 44.6013 5.57671C44.7132 5.52335 44.8105 5.44261 44.8845 5.34164ZM41.4439 9.22639V11.3242H44.4758C44.6139 11.3333 44.7521 11.3076 44.8781 11.2491C45.0041 11.1907 45.114 11.1013 45.1982 10.9891C45.3531 10.7775 45.4365 10.5201 45.4358 10.2559C45.4398 9.99567 45.3463 9.74377 45.1744 9.55174C45.0887 9.44813 44.9817 9.36521 44.8609 9.30896C44.7401 9.2527 44.6086 9.2245 44.4758 9.22639H41.4439Z" fill="white"/>
<path d="M59.3218 10.8095H67.6619C67.8111 10.812 67.9536 10.8736 68.0591 10.9815C68.1646 11.0893 68.225 11.2348 68.2274 11.3873V14.4029C68.228 14.4781 68.2135 14.5526 68.1849 14.6219C68.1563 14.6912 68.1142 14.7538 68.0611 14.8059C68.0097 14.861 67.9477 14.9045 67.879 14.9338C67.8103 14.963 67.7364 14.9774 67.6619 14.9759H54.446C54.2981 14.9734 54.1569 14.9122 54.0522 14.8053C53.9476 14.6983 53.8877 14.554 53.8853 14.4029V0.597418C53.8836 0.522048 53.8975 0.447168 53.9262 0.377702C53.9549 0.308236 53.9976 0.245757 54.0516 0.194375C54.1016 0.13857 54.1626 0.0941618 54.2306 0.064042C54.2986 0.0339223 54.372 0.0187663 54.446 0.019561H67.4528C67.5276 0.0189858 67.6016 0.0342198 67.6703 0.0643047C67.739 0.0943897 67.8009 0.138675 67.852 0.194375C67.9051 0.246488 67.9472 0.309103 67.9758 0.378398C68.0044 0.447693 68.0189 0.522216 68.0183 0.597418V3.61296C68.0189 3.68816 68.0044 3.76268 67.9758 3.83198C67.9472 3.90127 67.9051 3.96389 67.852 4.016C67.8006 4.07106 67.7386 4.1146 67.6699 4.14385C67.6012 4.17311 67.5273 4.18745 67.4528 4.18596H59.3218V5.53591H66.3028C66.3772 5.53442 66.4511 5.54875 66.5199 5.57801C66.5886 5.60727 66.6506 5.65081 66.702 5.70587C66.755 5.75798 66.7972 5.8206 66.8258 5.88989C66.8543 5.95919 66.8688 6.03371 66.8683 6.10891V8.88651C66.8692 8.96248 66.8549 9.03785 66.8263 9.10798C66.7977 9.17812 66.7554 9.24156 66.702 9.29441C66.6506 9.34946 66.5886 9.393 66.5199 9.42226C66.4511 9.45152 66.3772 9.46586 66.3028 9.46437H59.3218V10.8095Z" fill="white"/>
<path d="M71.4494 2.97068e-05H85.8771C85.9512 -0.00076494 86.0246 0.014391 86.0925 0.0445108C86.1605 0.0746305 86.2215 0.119039 86.2715 0.174844C86.3255 0.226226 86.3682 0.288704 86.3969 0.358171C86.4256 0.427637 86.4395 0.502517 86.4378 0.577887V4.04017C86.4354 4.19136 86.3755 4.33566 86.2709 4.44258C86.1663 4.5495 86.025 4.61067 85.8771 4.61317H81.3815V14.4027C81.3778 14.5544 81.3169 14.6987 81.2115 14.8055C81.1061 14.9123 80.9644 14.9733 80.816 14.9757H76.5105C76.3625 14.9733 76.2213 14.9121 76.1167 14.8052C76.012 14.6982 75.9522 14.5539 75.9497 14.4027V4.61317H71.4541C71.3054 4.61193 71.1629 4.55131 71.0573 4.44425C70.9516 4.3372 70.8911 4.19219 70.8886 4.04017V0.59731C70.8869 0.52194 70.9009 0.44706 70.9296 0.377594C70.9582 0.308128 71.001 0.24565 71.055 0.194267C71.1035 0.135161 71.1637 0.0872732 71.2317 0.0537845C71.2997 0.0202959 71.3739 0.00197208 71.4494 2.97068e-05Z" fill="white"/>
<path d="M93.6185 0.597505V4.78818H94.5689C96.4381 4.78818 97.9018 5.23978 98.9599 6.14299C99.4807 6.58448 99.8948 7.14275 100.17 7.77439C100.445 8.40604 100.574 9.09405 100.547 9.78494C100.568 10.49 100.435 11.191 100.159 11.8376C99.8833 12.4841 99.4704 13.0601 98.9504 13.524C97.8812 14.4952 96.4318 14.9808 94.5879 14.9808H89.3605C89.286 14.9823 89.2121 14.968 89.1434 14.9387C89.0747 14.9094 89.0127 14.8659 88.9613 14.8108C88.9082 14.7587 88.8661 14.6961 88.8375 14.6268C88.8089 14.5575 88.7944 14.483 88.795 14.4078V0.597505C88.7944 0.522302 88.8089 0.44778 88.8375 0.378485C88.8661 0.30919 88.9082 0.246575 88.9613 0.194462C89.0138 0.131474 89.0795 0.0813268 89.1535 0.047712C89.2276 0.0140971 89.308 -0.00213028 89.389 0.000224022H93.0672C93.1419 -6.06586e-05 93.2159 0.015305 93.2845 0.0453722C93.3532 0.0754394 93.4151 0.11957 93.4664 0.175038C93.5193 0.230645 93.5601 0.296987 93.5863 0.369764C93.6125 0.442541 93.6235 0.520131 93.6185 0.597505ZM93.6185 8.67293V10.9844H94.5689C94.938 11.0099 95.3033 10.8959 95.5954 10.6639C95.7133 10.5526 95.8059 10.4162 95.8667 10.2643C95.9275 10.1124 95.9549 9.94881 95.947 9.78494C95.947 9.04684 95.4718 8.67293 94.5689 8.67293H93.6185ZM105.328 14.9857H101.697C101.549 14.9832 101.408 14.922 101.303 14.8151C101.199 14.7081 101.139 14.5638 101.136 14.4127V0.597505C101.135 0.522135 101.149 0.447255 101.177 0.377789C101.206 0.308323 101.249 0.245844 101.303 0.194462C101.351 0.135115 101.411 0.0870603 101.479 0.0535496C101.547 0.020039 101.622 0.00185367 101.697 0.000224022H105.337C105.412 -6.06586e-05 105.486 0.015305 105.555 0.0453722C105.623 0.0754394 105.685 0.11957 105.737 0.175038C105.79 0.227151 105.832 0.289766 105.86 0.359061C105.889 0.428356 105.903 0.502879 105.903 0.578081V14.4029C105.9 14.555 105.84 14.7 105.734 14.807C105.629 14.9141 105.486 14.9747 105.337 14.9759L105.328 14.9857Z" fill="white"/>
<path d="M126.147 1.56999e-05H139.653C139.728 -0.000559465 139.802 0.0146745 139.871 0.0447595C139.939 0.0748444 140.001 0.11913 140.052 0.17483C140.105 0.226943 140.147 0.289558 140.176 0.358853C140.205 0.428148 140.219 0.50267 140.219 0.577873V14.4027C140.219 14.4779 140.205 14.5525 140.176 14.6218C140.147 14.6911 140.105 14.7537 140.052 14.8058C140.001 14.8608 139.939 14.9044 139.87 14.9336C139.801 14.9629 139.728 14.9772 139.653 14.9757H135.557C135.408 14.9745 135.265 14.9139 135.16 14.8068C135.054 14.6998 134.994 14.5548 134.991 14.4027V4.63744H130.809V14.4027C130.81 14.4779 130.795 14.5525 130.767 14.6218C130.738 14.6911 130.696 14.7537 130.643 14.8058C130.592 14.8608 130.53 14.9044 130.461 14.9336C130.392 14.9629 130.318 14.9772 130.244 14.9757H126.147C125.999 14.9774 125.856 14.9199 125.748 14.8155C125.693 14.7626 125.65 14.6985 125.622 14.6274C125.593 14.5562 125.579 14.4796 125.582 14.4027V0.597296C125.581 0.522094 125.596 0.447572 125.624 0.378276C125.653 0.308981 125.695 0.246367 125.748 0.194253C125.798 0.135249 125.859 0.087492 125.928 0.0540431C125.996 0.0205942 126.071 0.00219185 126.147 1.56999e-05Z" fill="white"/>
<path d="M148.744 5.88542V9.11462C148.732 9.35844 148.778 9.60165 148.878 9.82329C148.978 10.0449 149.129 10.2384 149.319 10.3869C149.759 10.701 150.289 10.858 150.826 10.8336C151.292 10.8677 151.759 10.7703 152.175 10.552C152.477 10.339 152.719 10.0495 152.878 9.7119C152.938 9.55797 153.039 9.42477 153.171 9.3283C153.302 9.23183 153.458 9.17618 153.62 9.16804H158.139C158.199 9.16706 158.259 9.17862 158.314 9.202C158.37 9.22537 158.42 9.26008 158.462 9.304C158.506 9.34575 158.54 9.39616 158.564 9.45211C158.588 9.50806 158.6 9.56838 158.6 9.62935C158.6 10.9307 157.987 12.1253 156.761 13.2033C156.036 13.7942 155.205 14.2331 154.314 14.495C153.146 14.8432 151.933 15.007 150.716 14.9806C149.432 14.996 148.155 14.7807 146.943 14.3445C145.838 13.9463 144.873 13.2211 144.172 12.2613C143.446 11.2401 143.07 10.0025 143.103 8.74072V6.26904C143.064 4.99433 143.44 3.7424 144.172 2.70964C145.509 0.903227 147.746 2.24772e-05 150.883 2.24772e-05C152.044 -0.019013 153.201 0.14477 154.314 0.485616C155.205 0.74749 156.036 1.18643 156.761 1.7773C157.987 2.85855 158.6 4.04664 158.6 5.34156C158.6 5.40253 158.588 5.46284 158.564 5.5188C158.54 5.57475 158.506 5.62515 158.462 5.6669C158.42 5.71082 158.37 5.74553 158.314 5.76891C158.259 5.79229 158.199 5.80385 158.139 5.80287H153.62C153.458 5.79472 153.302 5.73908 153.171 5.64261C153.039 5.54614 152.938 5.41294 152.878 5.25901C152.719 4.92552 152.479 4.63955 152.18 4.42864C151.764 4.20819 151.297 4.11065 150.83 4.147C150.294 4.12263 149.764 4.27964 149.324 4.59374C149.131 4.74362 148.977 4.93994 148.875 5.16528C148.774 5.39061 148.729 5.63799 148.744 5.88542Z" fill="white"/>
<path d="M161.775 2.97068e-05H165.667C165.741 -0.00076494 165.814 0.014391 165.882 0.0445108C165.95 0.0746305 166.011 0.119039 166.061 0.174844C166.116 0.225984 166.159 0.288304 166.189 0.357747C166.218 0.427189 166.233 0.502197 166.232 0.577887V6.8809L170.79 0.446776C170.879 0.309787 170.999 0.197352 171.141 0.119428C171.283 0.0415037 171.441 0.000493917 171.602 2.97068e-05H174.991C175.065 -0.000254974 175.139 0.0151107 175.208 0.0451779C175.276 0.0752451 175.338 0.119375 175.39 0.174844C175.443 0.226957 175.485 0.289571 175.513 0.358867C175.542 0.428162 175.557 0.502684 175.556 0.577887V14.4027C175.554 14.5548 175.493 14.6998 175.387 14.8068C175.282 14.9139 175.139 14.9745 174.991 14.9757H171.103C170.954 14.9745 170.812 14.9139 170.706 14.8068C170.601 14.6998 170.54 14.5548 170.538 14.4027V8.57562L165.98 14.5144C165.887 14.6527 165.762 14.7657 165.616 14.8435C165.47 14.9213 165.308 14.9617 165.144 14.9612H161.775C161.627 14.9587 161.485 14.8975 161.381 14.7906C161.276 14.6837 161.216 14.5394 161.214 14.3882V0.59731C161.212 0.52194 161.226 0.44706 161.255 0.377594C161.283 0.308128 161.326 0.24565 161.38 0.194267C161.428 0.13492 161.489 0.086866 161.557 0.0533553C161.625 0.0198446 161.699 0.00165935 161.775 2.97068e-05Z" fill="white"/>
<path d="M193.976 14.2713C194.03 14.3598 194.052 14.4648 194.039 14.5684C194.026 14.672 193.979 14.7678 193.904 14.8394C193.862 14.8833 193.812 14.9181 193.756 14.9414C193.701 14.9648 193.641 14.9764 193.581 14.9754H189.086C188.912 14.9822 188.741 14.9406 188.589 14.855C188.438 14.7694 188.312 14.6431 188.225 14.4898L186.201 11.3092L184.215 14.4898C184.126 14.6414 184 14.7662 183.849 14.8515C183.698 14.9369 183.527 14.9796 183.354 14.9754H178.84C178.78 14.977 178.72 14.9657 178.664 14.9423C178.609 14.9188 178.558 14.8838 178.517 14.8394C178.447 14.7652 178.401 14.6702 178.388 14.568C178.374 14.4659 178.393 14.362 178.441 14.2713L183.064 7.0505L178.944 0.737776C178.898 0.660845 178.876 0.570722 178.883 0.480411C178.883 0.422026 178.894 0.364265 178.917 0.310775C178.94 0.257285 178.974 0.209226 179.016 0.169631C179.057 0.12506 179.108 0.0896009 179.163 0.0653968C179.219 0.0411928 179.278 0.0287461 179.339 0.0288088H183.858C184.038 0.0300533 184.214 0.0801914 184.369 0.174069C184.523 0.267947 184.65 0.402178 184.737 0.562962L186.367 3.30171L188.121 0.524115C188.214 0.377044 188.341 0.255762 188.491 0.171047C188.641 0.0863324 188.81 0.0408083 188.981 0.0385207H193.477C193.537 0.038458 193.597 0.0509046 193.652 0.0751087C193.708 0.0993128 193.758 0.134772 193.8 0.179343C193.842 0.218694 193.877 0.266599 193.9 0.320068C193.924 0.373538 193.937 0.431427 193.938 0.490123C193.943 0.580962 193.919 0.671126 193.871 0.747488L189.504 7.34671L193.976 14.2713Z" fill="white"/>
<path d="M211.773 6.23017V8.76983C211.817 10.049 211.45 11.3078 210.727 12.3535C210.04 13.3049 209.082 14.017 207.985 14.393C205.383 15.2023 202.604 15.2023 200.001 14.393C198.904 14.017 197.947 13.3049 197.259 12.3535C196.531 11.2958 196.164 10.023 196.214 8.73098V6.26902C196.214 4.17125 196.936 2.60278 198.381 1.56361C199.826 0.524442 201.696 0.00323729 203.993 0C206.293 0 208.164 0.521204 209.606 1.56361C211.047 2.60602 211.769 4.16154 211.773 6.23017ZM201.859 5.8854V9.1146C201.847 9.35937 201.894 9.60341 201.996 9.82526C202.098 10.0471 202.252 10.24 202.444 10.3869C202.902 10.7063 203.449 10.8633 204.003 10.8336C204.558 10.8649 205.107 10.7041 205.561 10.3771C205.751 10.2263 205.902 10.031 206.002 9.80791C206.102 9.58479 206.148 9.34032 206.136 9.09518V5.90482C206.148 5.65968 206.102 5.41522 206.002 5.19209C205.902 4.96896 205.751 4.77372 205.561 4.62286C205.107 4.29589 204.558 4.13508 204.003 4.1664C203.449 4.13671 202.902 4.29368 202.444 4.61314C202.252 4.76004 202.098 4.95289 201.996 5.17474C201.894 5.39659 201.847 5.64063 201.859 5.8854Z" fill="white"/>
<path d="M214.239 15.0001C214.086 14.9997 213.94 14.9388 213.83 14.8302C213.774 14.7787 213.73 14.7158 213.7 14.6455C213.669 14.5751 213.654 14.4991 213.654 14.4223V11.0231C213.656 10.8702 213.716 10.724 213.821 10.6159C213.927 10.5078 214.07 10.4465 214.22 10.4452C214.437 10.4713 214.658 10.4502 214.866 10.3833C215.075 10.3163 215.268 10.2051 215.432 10.0568C215.683 9.70307 215.801 9.26858 215.764 8.83307V0.58768C215.764 0.513209 215.779 0.43944 215.807 0.370946C215.836 0.302452 215.878 0.240692 215.931 0.189493C215.983 0.135575 216.045 0.092787 216.114 0.0636118C216.182 0.0344367 216.256 0.0194548 216.33 0.0195351H228.21C228.285 0.0192505 228.359 0.0346162 228.428 0.0646834C228.496 0.0947505 228.558 0.138881 228.61 0.194349C228.663 0.246462 228.705 0.309077 228.733 0.378372C228.762 0.447667 228.776 0.52219 228.776 0.597392V14.4028C228.773 14.5549 228.713 14.6999 228.607 14.8069C228.502 14.914 228.359 14.9746 228.21 14.9758H224.304C224.23 14.9773 224.156 14.963 224.087 14.9337C224.018 14.9045 223.956 14.8609 223.905 14.8059C223.852 14.7538 223.81 14.6911 223.781 14.6219C223.753 14.5526 223.738 14.478 223.739 14.4028V4.61326H220.768V8.83307C220.768 10.9017 220.193 12.4459 219.043 13.4656C217.893 14.4854 216.292 14.9969 214.239 15.0001Z" fill="white"/>
<path d="M247.319 6.23017V8.76983C247.363 10.049 246.996 11.3078 246.274 12.3535C245.586 13.3049 244.629 14.017 243.532 14.393C242.244 14.8224 240.894 15.0276 239.54 15C238.184 15.0272 236.833 14.822 235.543 14.393C234.448 14.0155 233.492 13.3036 232.806 12.3535C232.078 11.2958 231.711 10.023 231.76 8.73098V6.26902C231.76 4.17125 232.481 2.60278 233.923 1.56361C235.364 0.524442 237.236 0.00323729 239.54 0C241.84 0 243.711 0.521204 245.152 1.56361C246.594 2.60602 247.316 4.16154 247.319 6.23017ZM237.406 5.8854V9.1146C237.393 9.35853 237.438 9.60202 237.539 9.8238C237.639 10.0456 237.791 10.2389 237.981 10.3869C238.439 10.7063 238.986 10.8633 239.54 10.8336C240.095 10.8649 240.644 10.7041 241.098 10.3771C241.288 10.2263 241.439 10.031 241.539 9.80791C241.639 9.58479 241.685 9.34032 241.673 9.09518V5.90482C241.685 5.65968 241.639 5.41522 241.539 5.19209C241.439 4.96896 241.288 4.77372 241.098 4.62286C240.644 4.29589 240.095 4.13508 239.54 4.1664C238.986 4.13671 238.439 4.29368 237.981 4.61314C237.791 4.7611 237.639 4.95441 237.539 5.1762C237.438 5.39798 237.393 5.64148 237.406 5.8854Z" fill="white"/>
<path d="M254.927 14.9758H250.622C250.547 14.9773 250.474 14.963 250.405 14.9337C250.336 14.9045 250.274 14.8609 250.223 14.8059C250.17 14.7538 250.127 14.6912 250.099 14.6219C250.07 14.5526 250.056 14.478 250.056 14.4028V0.597404C250.056 0.522202 250.07 0.447679 250.099 0.378384C250.127 0.309089 250.17 0.246474 250.223 0.194361C250.274 0.138661 250.336 0.0943757 250.404 0.0642907C250.473 0.0342057 250.547 0.0189718 250.622 0.0195469H261.975C262.05 0.0192623 262.124 0.034628 262.192 0.0646952C262.261 0.0947624 262.323 0.138893 262.374 0.194361C262.427 0.246474 262.469 0.309089 262.498 0.378384C262.526 0.447679 262.541 0.522202 262.54 0.597404V4.04027C262.538 4.19228 262.477 4.3373 262.372 4.44435C262.266 4.5514 262.124 4.61202 261.975 4.61327H255.474V14.4028C255.471 14.5549 255.411 14.6999 255.305 14.8069C255.2 14.914 255.057 14.9746 254.908 14.9758H254.927Z" fill="white"/>
<path d="M267.549 14.9756H263.605C263.545 14.9766 263.485 14.965 263.43 14.9417C263.374 14.9183 263.324 14.8836 263.282 14.8397C263.204 14.7722 263.154 14.6765 263.144 14.5726C263.134 14.5082 263.134 14.4427 263.144 14.3783L267.725 0.728289C267.769 0.510458 267.89 0.317097 268.066 0.185993C268.242 0.0548878 268.459 -0.00453995 268.675 0.019322H274.487C274.704 -0.00453995 274.921 0.0548878 275.097 0.185993C275.273 0.317097 275.394 0.510458 275.438 0.728289L279.995 14.3783C280.013 14.4414 280.021 14.507 280.019 14.5726C280.009 14.6765 279.959 14.7722 279.881 14.8397C279.839 14.8836 279.789 14.9183 279.733 14.9417C279.678 14.965 279.618 14.9766 279.558 14.9756H275.604C275.389 14.9829 275.178 14.9152 275.005 14.7838C274.832 14.6523 274.709 14.4649 274.654 14.2521L274.131 12.7565H269.022L268.5 14.2521C268.445 14.4649 268.321 14.6523 268.148 14.7838C267.976 14.9152 267.764 14.9829 267.549 14.9756ZM273.047 8.59006L271.565 4.14687L270.077 8.59006H273.047Z" fill="white"/>
</g>
<defs>
<clipPath id="clip0_58_27">
<rect width="280" height="15" fill="white"/>
</clipPath>
</defs>
</svg>
