<svg width="548" height="29" viewBox="0 0 548 29" fill="none" xmlns="http://www.w3.org/2000/svg">
<g clip-path="url(#clip0_53_44)">
<path d="M11.0489 11.3784V17.6215C11.0232 18.0931 11.1123 18.5639 11.3085 18.9926C11.5047 19.4214 11.8019 19.7952 12.1743 20.0812C13.0356 20.6898 14.0723 20.9935 15.1226 20.9449C16.0358 21.0093 16.949 20.8211 17.764 20.4004C18.3465 19.9822 18.8164 19.424 19.1312 18.7763C19.2472 18.4787 19.4458 18.2211 19.7031 18.0346C19.9605 17.8481 20.2657 17.7405 20.5821 17.7248H29.4272C29.5447 17.7229 29.6615 17.7452 29.7702 17.7904C29.879 17.8356 29.9774 17.9027 30.0596 17.9877C30.1435 18.0688 30.2099 18.1666 30.2547 18.2748C30.2995 18.383 30.3217 18.4994 30.32 18.6167C30.32 21.1327 29.1202 23.4422 26.7206 25.5263C25.3047 26.6725 23.6762 27.5215 21.9308 28.0236C19.6482 28.6969 17.2769 29.0135 14.8994 28.9624C12.3823 28.9929 9.87959 28.5766 7.5053 27.7326C5.34337 26.9602 3.45655 25.5588 2.08296 23.705C0.668796 21.7278 -0.0631384 19.3365 -0.000406807 16.8986V12.1201C-0.0754214 9.65726 0.656909 7.23832 2.08296 5.23855C4.70577 1.74615 9.08642 -4.21959e-05 15.2249 -4.21959e-05C17.4947 -0.0369257 19.7566 0.279734 21.9308 0.938773C23.6762 1.44087 25.3047 2.2899 26.7206 3.43602C29.1202 5.52645 30.32 7.82342 30.32 10.3269C30.3217 10.4442 30.2995 10.5606 30.2547 10.6688C30.2099 10.777 30.1435 10.8747 30.0596 10.9559C29.9774 11.0408 29.879 11.1079 29.7702 11.1531C29.6615 11.1983 29.5447 11.2207 29.4272 11.2188H20.5821C20.2657 11.203 19.9605 11.0955 19.7031 10.909C19.4458 10.7224 19.2472 10.4649 19.1312 10.1673C18.8088 9.5401 18.3395 9.00189 17.764 8.5995C16.9506 8.17424 16.0361 7.98572 15.1226 8.05499C14.0723 8.00646 13.0356 8.31015 12.1743 8.9187C11.8019 9.20474 11.5047 9.57849 11.3085 10.0073C11.1123 10.4361 11.0232 10.9068 11.0489 11.3784Z" fill="#1A134C"/>
<path d="M64.8262 12.045V16.955C64.9126 19.4281 64.1939 21.8618 62.78 23.8835C61.4347 25.7228 59.561 27.0995 57.4135 27.8265C54.8926 28.6559 52.2518 29.0526 49.6009 29C46.9469 29.0525 44.303 28.6559 41.7789 27.8265C39.6354 27.0967 37.7655 25.7204 36.4217 23.8835C35.0143 21.8391 34.3087 19.3859 34.4128 16.8987V12.1201C34.4128 8.06442 35.8234 5.03205 38.6446 3.02298C41.4658 1.01392 45.1179 0.00625877 49.6009 0C54.1024 0 57.7638 1.00766 60.5851 3.02298C63.4063 5.03831 64.82 8.04565 64.8262 12.045ZM45.4248 11.3784V17.6216C45.3991 18.0931 45.4883 18.5639 45.6845 18.9927C45.8807 19.4215 46.1779 19.7952 46.5502 20.0813C47.4458 20.6989 48.5177 21.0024 49.6009 20.945C50.6871 21.0055 51.7619 20.6946 52.6515 20.0625C53.0223 19.7708 53.3182 19.3933 53.5141 18.962C53.7099 18.5306 53.8001 18.058 53.7769 17.584V11.416C53.8001 10.942 53.7099 10.4694 53.5141 10.038C53.3182 9.60666 53.0223 9.22919 52.6515 8.93752C51.7619 8.30539 50.6871 7.99448 49.6009 8.05503C48.5177 7.99764 47.4458 8.30111 46.5502 8.91875C46.1779 9.20479 45.8807 9.57853 45.6845 10.0073C45.4883 10.4361 45.3991 10.9069 45.4248 11.3784Z" fill="#1A134C"/>
<path d="M99.9737 19.8655C99.9737 25.9303 96.1263 28.9595 88.4315 28.9533H71.6157C71.3245 28.9509 71.0458 28.8337 70.839 28.6267C70.6322 28.4197 70.5138 28.1394 70.5089 27.8455V1.15494C70.5009 1.01198 70.5223 0.868883 70.5719 0.734738C70.6216 0.600594 70.6983 0.478335 70.7973 0.375727C70.8973 0.255412 71.0227 0.159231 71.1643 0.0942473C71.3059 0.0292638 71.4602 -0.00287154 71.6157 0.000201342H88.0222C91.9038 0.000201342 94.7622 0.710572 96.5975 2.13131C98.4329 3.55205 99.363 5.69255 99.3878 8.55281V8.67485C99.422 9.89278 99.0484 11.0868 98.3275 12.064C97.7854 12.8688 97.0132 13.4877 96.1139 13.8383C97.263 14.2165 98.2483 14.9822 98.9041 16.007C99.6499 17.1494 100.024 18.4983 99.9737 19.8655ZM87.8455 10.3272C88.1245 9.93622 88.2742 9.46644 88.2734 8.98466C88.2798 8.51931 88.1289 8.06564 87.8455 7.69849C87.6917 7.51712 87.4981 7.37437 87.2802 7.28149C87.0623 7.18862 86.826 7.14818 86.5899 7.16336H81.1118V10.9186H86.5899C86.8313 10.9319 87.0721 10.8848 87.2911 10.7816C87.5101 10.6785 87.7006 10.5224 87.8455 10.3272ZM81.1118 17.8377V21.8934H87.0457C87.3159 21.9111 87.5863 21.8613 87.8329 21.7483C88.0795 21.6353 88.2947 21.4626 88.4594 21.2456C88.7626 20.8364 88.9258 20.3389 88.9244 19.828C88.9322 19.325 88.7492 18.838 88.4129 18.4667C88.2452 18.2664 88.0356 18.1061 87.7992 17.9973C87.5628 17.8885 87.3054 17.834 87.0457 17.8377H81.1118Z" fill="#1A134C"/>
<path d="M116.101 20.8986H132.424C132.716 20.9035 132.995 21.0227 133.201 21.2312C133.408 21.4397 133.526 21.721 133.531 22.0158V27.8458C133.532 27.9912 133.503 28.1353 133.448 28.2693C133.392 28.4033 133.309 28.5243 133.205 28.6251C133.105 28.7315 132.983 28.8157 132.849 28.8723C132.714 28.9288 132.57 28.9565 132.424 28.9537H106.559C106.269 28.9488 105.993 28.8306 105.788 28.6238C105.583 28.4171 105.466 28.1381 105.461 27.8458V1.15533C105.458 1.00962 105.485 0.86485 105.541 0.730549C105.597 0.596248 105.681 0.475456 105.787 0.376117C105.885 0.268227 106.004 0.182372 106.137 0.12414C106.27 0.0659086 106.414 0.0366071 106.559 0.0381434H132.015C132.161 0.0370314 132.306 0.0664837 132.44 0.124648C132.575 0.182812 132.696 0.26843 132.796 0.376117C132.9 0.476869 132.982 0.597924 133.038 0.731895C133.094 0.865866 133.123 1.00994 133.122 1.15533V6.98538C133.123 7.13077 133.094 7.27484 133.038 7.40881C132.982 7.54278 132.9 7.66384 132.796 7.76459C132.695 7.87103 132.574 7.95521 132.44 8.01178C132.305 8.06834 132.16 8.09606 132.015 8.09318H116.101V10.7031H129.764C129.91 10.7002 130.054 10.7279 130.189 10.7845C130.323 10.8411 130.445 10.9252 130.545 11.0317C130.649 11.1324 130.732 11.2535 130.787 11.3874C130.843 11.5214 130.872 11.6655 130.871 11.8109V17.1809C130.873 17.3278 130.845 17.4735 130.789 17.6091C130.733 17.7447 130.65 17.8673 130.545 17.9695C130.445 18.076 130.323 18.1601 130.189 18.2167C130.054 18.2733 129.91 18.301 129.764 18.2981H116.101V20.8986Z" fill="#1A134C"/>
<path d="M139.837 5.74331e-05H168.074C168.219 -0.00147888 168.362 0.0278227 168.495 0.0860542C168.628 0.144286 168.748 0.230141 168.846 0.338031C168.951 0.43737 169.035 0.558162 169.091 0.692463C169.147 0.826764 169.175 0.971532 169.171 1.11725V7.811C169.166 8.1033 169.049 8.38227 168.845 8.58899C168.64 8.7957 168.363 8.91397 168.074 8.9188H159.275V27.8453C159.268 28.1385 159.149 28.4175 158.943 28.6239C158.736 28.8304 158.459 28.9484 158.168 28.9531H149.742C149.452 28.9483 149.176 28.83 148.971 28.6233C148.766 28.4166 148.649 28.1376 148.645 27.8453V8.9188H139.846C139.555 8.91639 139.276 8.7992 139.069 8.59223C138.863 8.38526 138.744 8.1049 138.739 7.811V1.1548C138.736 1.00908 138.763 0.864317 138.819 0.730016C138.875 0.595715 138.959 0.474923 139.065 0.375584C139.16 0.26131 139.278 0.168728 139.411 0.103983C139.544 0.0392387 139.689 0.00381269 139.837 5.74331e-05Z" fill="#1A134C"/>
<path d="M183.225 1.15518V9.25715H185.085C188.743 9.25715 191.608 10.1302 193.679 11.8764C194.698 12.73 195.509 13.8093 196.047 15.0305C196.586 16.2517 196.839 17.5818 196.785 18.9176C196.826 20.2807 196.567 21.636 196.026 22.886C195.486 24.1359 194.678 25.2494 193.66 26.1464C191.567 28.0241 188.731 28.9629 185.122 28.9629H174.891C174.746 28.9658 174.601 28.938 174.466 28.8815C174.332 28.8249 174.21 28.7407 174.11 28.6343C174.006 28.5335 173.924 28.4125 173.868 28.2785C173.812 28.1445 173.783 28.0005 173.784 27.8551V1.15518C173.783 1.00978 173.812 0.865708 173.868 0.731737C173.924 0.597767 174.006 0.476712 174.11 0.375959C174.213 0.254182 174.341 0.157232 174.486 0.0922432C174.631 0.0272544 174.789 -0.00411854 174.947 0.00043311H182.146C182.292 -0.000117273 182.437 0.0295898 182.571 0.0877196C182.705 0.14585 182.827 0.231168 182.927 0.338407C183.031 0.445914 183.111 0.574174 183.162 0.714877C183.213 0.85558 183.235 1.00559 183.225 1.15518ZM183.225 16.7677V21.2364H185.085C185.807 21.2859 186.522 21.0653 187.094 20.6168C187.325 20.4016 187.506 20.1379 187.625 19.8443C187.744 19.5507 187.797 19.2344 187.782 18.9176C187.782 17.4906 186.852 16.7677 185.085 16.7677H183.225ZM206.142 28.9723H199.036C198.746 28.9674 198.47 28.8492 198.265 28.6425C198.06 28.4357 197.943 28.1568 197.938 27.8645V1.15518C197.935 1.00946 197.962 0.864692 198.019 0.730391C198.075 0.59609 198.158 0.475299 198.264 0.375959C198.359 0.261222 198.476 0.168317 198.61 0.103529C198.743 0.038742 198.888 0.00358376 199.036 0.00043311H206.16C206.307 -0.000117273 206.451 0.0295898 206.586 0.0877196C206.72 0.14585 206.841 0.231168 206.942 0.338407C207.045 0.439159 207.128 0.560214 207.184 0.694185C207.24 0.828155 207.268 0.972232 207.267 1.11762V27.8457C207.262 28.1396 207.144 28.4199 206.937 28.6269C206.73 28.8339 206.452 28.9511 206.16 28.9535L206.142 28.9723Z" fill="#1A134C"/>
<path d="M246.888 3.03532e-05H273.321C273.467 -0.00108163 273.612 0.0283707 273.747 0.086535C273.881 0.144699 274.002 0.230317 274.102 0.338004C274.206 0.438756 274.289 0.559811 274.345 0.693782C274.401 0.827752 274.429 0.971829 274.428 1.11722V27.8453C274.429 27.9907 274.401 28.1348 274.345 28.2687C274.289 28.4027 274.206 28.5238 274.102 28.6245C274.002 28.7309 273.88 28.8151 273.746 28.8717C273.611 28.9283 273.467 28.956 273.321 28.9531H265.304C265.013 28.9507 264.734 28.8335 264.527 28.6265C264.32 28.4195 264.202 28.1392 264.197 27.8453V8.96572H256.012V27.8453C256.013 27.9907 255.985 28.1348 255.929 28.2687C255.873 28.4027 255.791 28.5238 255.687 28.6245C255.586 28.7309 255.465 28.8151 255.33 28.8717C255.196 28.9283 255.051 28.956 254.906 28.9531H246.888C246.598 28.9564 246.318 28.8452 246.107 28.6433C246 28.5411 245.916 28.4171 245.859 28.2795C245.803 28.142 245.777 27.994 245.782 27.8453V1.15477C245.781 1.00938 245.809 0.865305 245.865 0.731334C245.921 0.597364 246.003 0.476309 246.107 0.375556C246.204 0.261482 246.324 0.169151 246.458 0.104483C246.593 0.0398155 246.739 0.00423758 246.888 3.03532e-05Z" fill="#31BC7A"/>
<path d="M291.113 11.3784V17.6215C291.089 18.0929 291.179 18.5631 291.375 18.9916C291.571 19.4201 291.868 19.7941 292.239 20.0812C293.101 20.6885 294.137 20.992 295.187 20.9449C296.1 21.0108 297.014 20.8224 297.829 20.4004C298.419 19.9887 298.893 19.429 299.205 18.7762C299.321 18.4786 299.52 18.2211 299.777 18.0346C300.034 17.8481 300.34 17.7405 300.656 17.7248H309.501C309.619 17.7229 309.735 17.7452 309.844 17.7904C309.953 17.8356 310.051 17.9027 310.133 17.9876C310.219 18.0684 310.286 18.1658 310.333 18.274C310.379 18.3822 310.403 18.4988 310.403 18.6167C310.403 21.1327 309.203 23.4422 306.804 25.5263C305.385 26.6687 303.758 27.5173 302.014 28.0236C299.728 28.6968 297.354 29.0134 294.973 28.9624C292.459 28.9921 289.96 28.5759 287.588 27.7325C285.425 26.9627 283.538 25.5608 282.166 23.705C280.745 21.7308 280.009 19.3382 280.073 16.8986V12.12C279.997 9.6556 280.733 7.23521 282.166 5.23853C284.783 1.74614 289.16 -5.42002e-05 295.299 -5.42002e-05C297.572 -0.0368561 299.836 0.279792 302.014 0.938761C303.758 1.44505 305.385 2.29367 306.804 3.43601C309.203 5.52644 310.403 7.82341 310.403 10.3269C310.403 10.4448 310.379 10.5614 310.333 10.6696C310.286 10.7778 310.219 10.8752 310.133 10.9559C310.051 11.0408 309.953 11.1079 309.844 11.1531C309.735 11.1983 309.619 11.2207 309.501 11.2188H300.656C300.34 11.203 300.034 11.0955 299.777 10.9089C299.52 10.7224 299.321 10.4649 299.205 10.1673C298.893 9.52258 298.423 8.9697 297.838 8.56194C297.025 8.13574 296.11 7.94715 295.196 8.01743C294.146 7.97031 293.11 8.27388 292.248 8.88114C291.87 9.17089 291.568 9.55045 291.37 9.9861C291.172 10.4218 291.084 10.9 291.113 11.3784Z" fill="#31BC7A"/>
<path d="M316.616 5.74331e-05H324.233C324.378 -0.00147888 324.522 0.0278227 324.655 0.0860542C324.788 0.144286 324.907 0.230141 325.005 0.338031C325.112 0.436902 325.197 0.557388 325.255 0.691643C325.313 0.825899 325.342 0.970915 325.34 1.11725V13.3031L334.26 0.863767C334.434 0.598921 334.67 0.381548 334.948 0.230894C335.225 0.0802405 335.535 0.000954906 335.85 5.74331e-05H342.481C342.628 -0.00049295 342.772 0.0292141 342.907 0.087344C343.041 0.145474 343.162 0.230792 343.263 0.338031C343.367 0.438783 343.449 0.559838 343.505 0.693809C343.561 0.82778 343.589 0.971856 343.588 1.11725V27.8453C343.583 28.1392 343.465 28.4196 343.258 28.6265C343.051 28.8335 342.773 28.9507 342.481 28.9531H334.873C334.582 28.9507 334.303 28.8335 334.097 28.6265C333.89 28.4196 333.771 28.1392 333.767 27.8453V16.5795L324.847 28.0612C324.664 28.3286 324.42 28.547 324.135 28.6975C323.849 28.8479 323.532 28.926 323.21 28.925H316.616C316.326 28.9201 316.05 28.8019 315.845 28.5951C315.64 28.3884 315.523 28.1094 315.519 27.8172V1.1548C315.515 1.00908 315.543 0.864317 315.599 0.730016C315.655 0.595715 315.738 0.474923 315.844 0.375584C315.939 0.260846 316.056 0.167941 316.19 0.103154C316.323 0.0383663 316.468 0.00320808 316.616 5.74331e-05Z" fill="#31BC7A"/>
<path d="M379.638 27.5921C379.744 27.7632 379.788 27.9662 379.763 28.1665C379.737 28.3668 379.644 28.5519 379.498 28.6905C379.416 28.7754 379.318 28.8425 379.209 28.8877C379.1 28.9329 378.983 28.9553 378.866 28.9534H370.067C369.729 28.9666 369.393 28.8861 369.096 28.7206C368.799 28.5552 368.553 28.311 368.384 28.0146L364.422 21.8653L360.534 28.0146C360.361 28.3076 360.114 28.549 359.818 28.7139C359.522 28.8789 359.189 28.9615 358.851 28.9534H350.015C349.897 28.9564 349.78 28.9346 349.671 28.8893C349.562 28.844 349.464 28.7763 349.383 28.6905C349.245 28.5471 349.157 28.3633 349.13 28.1658C349.104 27.9684 349.14 27.7674 349.234 27.5921L358.283 13.6319L350.22 1.42731C350.128 1.27858 350.086 1.10434 350.099 0.929739C350.099 0.816861 350.122 0.70519 350.167 0.601776C350.211 0.498361 350.277 0.405447 350.359 0.328897C350.441 0.242726 350.539 0.174172 350.648 0.127378C350.756 0.0805833 350.873 0.0565198 350.992 0.0566411H359.837C360.188 0.059047 360.533 0.155981 360.836 0.337478C361.138 0.518975 361.387 0.778487 361.557 1.08934L364.747 6.38426L368.179 1.01423C368.362 0.729896 368.611 0.495417 368.904 0.331635C369.198 0.167853 369.527 0.0798401 369.863 0.0754174H378.661C378.779 0.0752961 378.896 0.0993597 379.005 0.146154C379.114 0.192949 379.212 0.261503 379.294 0.347674C379.377 0.423753 379.444 0.516368 379.491 0.619743C379.537 0.723118 379.562 0.835035 379.563 0.948515C379.574 1.12414 379.528 1.29845 379.433 1.44609L370.886 14.2046L379.638 27.5921Z" fill="#31BC7A"/>
<path d="M414.469 12.045V16.955C414.556 19.4281 413.837 21.8617 412.423 23.8835C411.078 25.7228 409.204 27.0995 407.056 27.8265C401.963 29.3911 396.524 29.3911 391.431 27.8265C389.284 27.0995 387.41 25.7228 386.065 23.8835C384.64 21.8386 383.921 19.3777 384.019 16.8799V12.1201C384.019 8.06442 385.432 5.03205 388.26 3.02298C391.087 1.01392 394.749 0.00625877 399.244 0C403.745 0 407.407 1.00766 410.228 3.02298C413.049 5.03831 414.463 8.04565 414.469 12.045ZM395.068 11.3784V17.6216C395.044 18.0948 395.136 18.5666 395.336 18.9955C395.535 19.4244 395.836 19.7973 396.212 20.0813C397.107 20.6989 398.179 21.0024 399.262 20.945C400.349 21.0055 401.424 20.6946 402.313 20.0625C402.684 19.7708 402.98 19.3933 403.176 18.962C403.372 18.5306 403.462 18.058 403.438 17.584V11.416C403.462 10.942 403.372 10.4694 403.176 10.038C402.98 9.60666 402.684 9.22919 402.313 8.93752C401.424 8.30539 400.349 7.99448 399.262 8.05503C398.179 7.99764 397.107 8.30111 396.212 8.91874C395.836 9.20274 395.535 9.5756 395.336 10.0045C395.136 10.4334 395.044 10.9052 395.068 11.3784Z" fill="#31BC7A"/>
<path d="M419.296 29.0005C418.998 28.9997 418.711 28.8819 418.496 28.672C418.387 28.5725 418.3 28.4508 418.241 28.3149C418.181 28.1789 418.151 28.0319 418.152 27.8834V21.3116C418.155 21.0161 418.272 20.7334 418.479 20.5244C418.686 20.3154 418.966 20.1969 419.259 20.1945C419.684 20.2449 420.116 20.2041 420.524 20.0747C420.933 19.9452 421.31 19.7301 421.631 19.4434C422.123 18.7596 422.354 17.9196 422.282 17.0776V1.13651C422.281 0.99253 422.309 0.84991 422.365 0.717488C422.421 0.585066 422.504 0.465663 422.607 0.366679C422.71 0.262437 422.831 0.179714 422.965 0.123308C423.099 0.0669031 423.243 0.0379381 423.389 0.0380934H446.64C446.787 0.0375431 446.931 0.0672501 447.066 0.12538C447.2 0.18351 447.321 0.268828 447.422 0.376067C447.526 0.476819 447.608 0.597874 447.664 0.731845C447.72 0.865816 447.748 1.00989 447.747 1.15528V27.8458C447.742 28.1397 447.624 28.4201 447.417 28.627C447.21 28.834 446.932 28.9512 446.64 28.9536H438.995C438.85 28.9565 438.705 28.9288 438.57 28.8722C438.436 28.8156 438.315 28.7315 438.214 28.625C438.11 28.5243 438.028 28.4032 437.972 28.2692C437.916 28.1353 437.887 27.9912 437.888 27.8458V8.91928H432.075V17.0776C432.075 21.0769 430.95 24.0624 428.699 26.0339C426.449 28.0054 423.314 28.9943 419.296 29.0005Z" fill="#31BC7A"/>
<path d="M484.039 12.045V16.955C484.125 19.4281 483.406 21.8618 481.993 23.8835C480.647 25.7228 478.774 27.0995 476.626 27.8265C474.105 28.6566 471.464 29.0533 468.813 29C466.159 29.0525 463.516 28.6559 460.991 27.8265C458.848 27.0967 456.978 25.7204 455.634 23.8835C454.21 21.8386 453.491 19.3777 453.588 16.8799V12.1201C453.588 8.06442 454.999 5.03205 457.82 3.02298C460.641 1.01392 464.306 0.00625877 468.813 0C473.315 0 476.976 1.00766 479.798 3.02298C482.619 5.03831 484.033 8.04565 484.039 12.045ZM464.637 11.3784V17.6216C464.612 18.0931 464.701 18.5639 464.897 18.9927C465.093 19.4215 465.39 19.7952 465.763 20.0813C466.658 20.6989 467.73 21.0024 468.813 20.945C469.9 21.0055 470.974 20.6946 471.864 20.0625C472.235 19.7708 472.531 19.3933 472.727 18.962C472.923 18.5306 473.013 18.058 472.989 17.584V11.416C473.013 10.942 472.923 10.4694 472.727 10.038C472.531 9.60666 472.235 9.22919 471.864 8.93752C470.974 8.30539 469.9 7.99448 468.813 8.05503C467.73 7.99764 466.658 8.30111 465.763 8.91874C465.39 9.20478 465.093 9.57853 464.897 10.0073C464.701 10.4361 464.612 10.9069 464.637 11.3784Z" fill="#31BC7A"/>
<path d="M498.929 28.9536H490.503C490.357 28.9565 490.212 28.9288 490.078 28.8722C489.943 28.8157 489.822 28.7315 489.721 28.625C489.618 28.5243 489.535 28.4032 489.479 28.2693C489.423 28.1353 489.395 27.9912 489.396 27.8458V1.15531C489.395 1.00992 489.423 0.865838 489.479 0.731868C489.535 0.597897 489.618 0.476842 489.721 0.37609C489.822 0.268403 489.943 0.182785 490.077 0.124621C490.212 0.0664566 490.357 0.0370043 490.503 0.0381163H512.722C512.868 0.0375659 513.013 0.0672729 513.148 0.125403C513.282 0.183533 513.403 0.268851 513.504 0.37609C513.607 0.476842 513.69 0.597897 513.746 0.731868C513.802 0.865838 513.83 1.00992 513.829 1.15531V7.81151C513.824 8.10541 513.706 8.38576 513.499 8.59273C513.292 8.7997 513.013 8.9169 512.722 8.91931H499.999V27.8458C499.994 28.1397 499.876 28.4201 499.669 28.6271C499.462 28.834 499.183 28.9512 498.892 28.9536H498.929Z" fill="#31BC7A"/>
<path d="M523.632 28.9528H515.912C515.795 28.9547 515.678 28.9324 515.569 28.8872C515.461 28.842 515.362 28.7749 515.28 28.69C515.127 28.5596 515.03 28.3745 515.01 28.1736C514.991 28.0492 514.991 27.9225 515.01 27.7981L523.976 1.40799C524.062 0.986853 524.3 0.613023 524.644 0.359553C524.988 0.106084 525.413 -0.00880979 525.836 0.0373234H537.211C537.634 -0.00880979 538.06 0.106084 538.404 0.359553C538.748 0.613023 538.986 0.986853 539.071 1.40799L547.991 27.7981C548.025 27.9201 548.041 28.0468 548.037 28.1736C548.017 28.3745 547.92 28.5596 547.767 28.69C547.685 28.7749 547.587 28.842 547.478 28.8872C547.369 28.9324 547.253 28.9547 547.135 28.9528H539.397C538.976 28.9668 538.562 28.8361 538.224 28.5819C537.886 28.3278 537.644 27.9654 537.537 27.554L536.514 24.6624H526.515L525.492 27.554C525.385 27.9654 525.142 28.3278 524.805 28.5819C524.467 28.8361 524.053 28.9668 523.632 28.9528ZM534.393 16.6074L531.491 8.01725L528.58 16.6074H534.393Z" fill="#31BC7A"/>
</g>
<defs>
<clipPath id="clip0_53_44">
<rect width="548" height="29" fill="white"/>
</clipPath>
</defs>
</svg>
