<svg width="38" height="28" viewBox="0 0 38 28" fill="none" xmlns="http://www.w3.org/2000/svg">
<path d="M12.8 13.52C13.76 14.16 14.5067 15.0133 15.04 16.08C15.6267 17.0933 15.92 18.24 15.92 19.52C15.92 21.9733 15.12 23.9733 13.52 25.52C11.92 27.0667 9.94667 27.84 7.6 27.84C5.46667 27.84 3.70667 27.1733 2.32 25.84C0.986667 24.5067 0.32 22.7733 0.32 20.64C0.32 19.52 0.506667 18.4533 0.88 17.44C1.30667 16.4267 2.02667 15.12 3.04 13.52L11.04 0.639997H18.88L12.8 13.52ZM31.68 13.52C32.64 14.16 33.3867 15.0133 33.92 16.08C34.5067 17.0933 34.8 18.24 34.8 19.52C34.8 21.9733 34 23.9733 32.4 25.52C30.8 27.0667 28.8267 27.84 26.48 27.84C24.3467 27.84 22.5867 27.1733 21.2 25.84C19.8667 24.5067 19.2 22.7733 19.2 20.64C19.2 19.52 19.3867 18.4533 19.76 17.44C20.1867 16.4267 20.9067 15.12 21.92 13.52L29.92 0.639997H37.76L31.68 13.52Z" fill="#31BC7A"/>
</svg>
