<svg width="49" height="49" viewBox="0 0 49 49" fill="none" xmlns="http://www.w3.org/2000/svg">
<rect width="49" height="49" fill="#E5E5E5"/>
<rect width="1280" height="3986" transform="translate(-340 -2533)" fill="white"/>
<path fill-rule="evenodd" clip-rule="evenodd" d="M43.7399 49H5.26012C2.34682 49 0 46.6532 0 43.7399V5.26012C0 2.38728 2.34682 0 5.26012 0H43.7399C46.6127 0 49 2.38728 49 5.26012V43.7399C49 46.6127 46.6127 49 43.7399 49Z" fill="#0088CC"/>
<path d="M16.9133 26.179L20.1503 35.1617C20.1503 35.1617 20.5549 36.0114 21 36.0114C21.4451 36.0114 27.8786 29.2946 27.8786 29.2946L35.0405 15.416L17.0347 23.8727L16.9133 26.179Z" fill="#C8DAEA"/>
<path d="M21.2428 28.4854L20.6358 35.0807C20.6358 35.0807 20.3931 37.1039 22.4162 35.0807C24.4393 33.0576 26.3815 31.4796 26.3815 31.4796L21.2428 28.4854Z" fill="#A9C6D8"/>
<path d="M16.9942 26.5027L10.3179 24.3177C10.3179 24.3177 9.50868 23.994 9.79192 23.2657C9.83238 23.1039 9.95377 22.9825 10.2775 22.7802C11.7746 21.7686 37.6301 12.4622 37.6301 12.4622C37.6301 12.4622 38.3584 12.2195 38.8035 12.3813C39.0058 12.4622 39.1272 12.5432 39.2486 12.8669C39.2486 12.9478 39.2486 13.1906 39.2486 13.4333C39.2486 13.5952 39.2081 13.757 39.2081 13.9998C39.0463 16.5489 34.3526 35.5258 34.3526 35.5258C34.3526 35.5258 34.0694 36.6183 33.0578 36.6588C32.6936 36.6588 32.2486 36.5779 31.7226 36.1328C29.7399 34.4333 22.9017 29.8206 21.3642 28.8091C21.2832 28.7686 21.2428 28.6877 21.2428 28.6068C21.2023 28.4854 21.3237 28.364 21.3237 28.364C21.3237 28.364 33.2601 17.7628 33.5838 16.6299C33.6243 16.5489 33.5029 16.5085 33.3815 16.549C32.5723 16.8322 18.8555 25.5316 17.3179 26.4622C17.237 26.5432 16.9942 26.5027 16.9942 26.5027Z" fill="white"/>
</svg>
