<svg width="49" height="49" viewBox="0 0 49 49" fill="none" xmlns="http://www.w3.org/2000/svg">
<rect width="49" height="49" fill="#E5E5E5"/>
<rect width="1280" height="3986" transform="translate(-272 -2533)" fill="white"/>
<path fill-rule="evenodd" clip-rule="evenodd" d="M43.7399 49H5.26012C2.34682 49 0 46.6532 0 43.7399V5.26012C0 2.38728 2.34682 0 5.26012 0H43.7399C46.6127 0 49 2.38728 49 5.26012V43.7399C49 46.6127 46.6127 49 43.7399 49Z" fill="url(#paint0_linear_16_726)"/>
<path fill-rule="evenodd" clip-rule="evenodd" d="M41.1907 24.0749C41.1907 33.0576 33.867 40.3408 24.8035 40.3408C21.9306 40.3408 19.2196 39.6125 16.8728 38.3177L7.80923 41.1905L10.763 32.4506C9.26588 29.9824 8.41617 27.1096 8.41617 24.0345C8.41617 15.0518 15.7399 7.76855 24.8035 7.76855C33.867 7.80902 41.1907 15.0923 41.1907 24.0749ZM24.8035 10.3986C17.1965 10.3986 11.0058 16.5489 11.0058 24.0749C11.0058 27.0691 11.9769 29.8206 13.6358 32.0865L11.8959 37.1847L17.1965 35.4853C19.3815 36.9015 21.9711 37.7512 24.763 37.7512C32.3699 37.7512 38.5607 31.6009 38.5607 24.0749C38.5607 16.5084 32.4104 10.3986 24.8035 10.3986ZM33.0578 27.7975C32.9364 27.6356 32.6936 27.5142 32.289 27.3119C31.8844 27.1096 29.9017 26.1385 29.5376 26.0171C29.1734 25.8957 28.8902 25.8148 28.6474 26.2194C28.3641 26.624 27.5954 27.5142 27.393 27.7975C27.1503 28.0807 26.9075 28.0807 26.5433 27.8784C26.1387 27.6761 24.8439 27.2714 23.3063 25.8957C22.0925 24.8437 21.3237 23.5489 21.0809 23.1443C20.8381 22.7397 21.0404 22.5373 21.2428 22.335C21.4046 22.1732 21.6474 21.8495 21.8497 21.6472C22.052 21.4044 22.1329 21.2425 22.2543 20.9998C22.3757 20.7165 22.3352 20.5142 22.2139 20.3119C22.1329 20.1096 21.3237 18.1674 20.9595 17.3581C20.6358 16.5489 20.2717 16.5894 20.0694 16.5894C19.8266 16.5894 19.422 16.6703 19.422 16.6703C19.422 16.6703 18.6127 16.7512 18.2485 17.1558C17.8844 17.5605 16.8324 18.5316 16.8324 20.4738C16.8324 22.416 18.289 24.3177 18.4913 24.6009C18.6936 24.8842 21.2832 29.0113 25.3699 30.6298C29.4566 32.2079 29.4566 31.6818 30.185 31.6414C30.9133 31.5605 32.5722 30.6703 32.8959 29.7397C33.1792 28.7686 33.1792 27.9593 33.0578 27.7975Z" fill="white"/>
<defs>
<linearGradient id="paint0_linear_16_726" x1="24.4915" y1="0" x2="24.4915" y2="48.983" gradientUnits="userSpaceOnUse">
<stop stop-color="#4AC14B"/>
<stop offset="1" stop-color="#06853A"/>
</linearGradient>
</defs>
</svg>
